<mxfile host="app.diagrams.net" agent="Mozilla/5.0 (X11; Linux x86_64; rv:136.0) Gecko/20100101 Firefox/136.0" version="26.1.0">
  <diagram name="Page-1" id="YvDw8z03QXFghlwcse0v">
    <mxGraphModel dx="1078" dy="686" grid="1" gridSize="10" guides="1" tooltips="1" connect="1" arrows="1" fold="1" page="1" pageScale="1" pageWidth="1100" pageHeight="850" math="0" shadow="0">
      <root>
        <mxCell id="0" />
        <mxCell id="1" parent="0" />
        <mxCell id="HlOCG1L-Az-CdFB1jCm5-18" style="edgeStyle=orthogonalEdgeStyle;rounded=0;orthogonalLoop=1;jettySize=auto;html=1;exitX=1;exitY=0.5;exitDx=0;exitDy=0;" edge="1" parent="1" source="HlOCG1L-Az-CdFB1jCm5-2">
          <mxGeometry relative="1" as="geometry">
            <mxPoint x="530" y="230" as="targetPoint" />
          </mxGeometry>
        </mxCell>
        <mxCell id="HlOCG1L-Az-CdFB1jCm5-2" value="..." style="rounded=0;whiteSpace=wrap;html=1;" vertex="1" parent="1">
          <mxGeometry x="330" y="180" width="80" height="100" as="geometry" />
        </mxCell>
        <mxCell id="HlOCG1L-Az-CdFB1jCm5-1" value="" style="verticalLabelPosition=bottom;shadow=0;dashed=0;align=center;html=1;verticalAlign=top;shape=mxgraph.electrical.logic_gates.logic_gate;operation=and;" vertex="1" parent="1">
          <mxGeometry x="360" y="190" width="40" height="20" as="geometry" />
        </mxCell>
        <mxCell id="HlOCG1L-Az-CdFB1jCm5-3" value="" style="verticalLabelPosition=bottom;shadow=0;dashed=0;align=center;html=1;verticalAlign=top;shape=mxgraph.electrical.logic_gates.logic_gate;operation=and;" vertex="1" parent="1">
          <mxGeometry x="360" y="250" width="40" height="20" as="geometry" />
        </mxCell>
        <mxCell id="HlOCG1L-Az-CdFB1jCm5-4" value="A0" style="text;html=1;align=center;verticalAlign=middle;whiteSpace=wrap;rounded=0;" vertex="1" parent="1">
          <mxGeometry x="330" y="190" width="30" height="10" as="geometry" />
        </mxCell>
        <mxCell id="HlOCG1L-Az-CdFB1jCm5-5" value="B0" style="text;html=1;align=center;verticalAlign=middle;whiteSpace=wrap;rounded=0;" vertex="1" parent="1">
          <mxGeometry x="330" y="200" width="30" height="10" as="geometry" />
        </mxCell>
        <mxCell id="HlOCG1L-Az-CdFB1jCm5-9" value="A3" style="text;html=1;align=center;verticalAlign=middle;whiteSpace=wrap;rounded=0;" vertex="1" parent="1">
          <mxGeometry x="330" y="250" width="30" height="10" as="geometry" />
        </mxCell>
        <mxCell id="HlOCG1L-Az-CdFB1jCm5-10" value="B3" style="text;html=1;align=center;verticalAlign=middle;whiteSpace=wrap;rounded=0;" vertex="1" parent="1">
          <mxGeometry x="330" y="260" width="30" height="10" as="geometry" />
        </mxCell>
        <mxCell id="HlOCG1L-Az-CdFB1jCm5-15" style="edgeStyle=orthogonalEdgeStyle;rounded=0;orthogonalLoop=1;jettySize=auto;html=1;exitX=1;exitY=0.5;exitDx=0;exitDy=0;" edge="1" parent="1" source="HlOCG1L-Az-CdFB1jCm5-12" target="HlOCG1L-Az-CdFB1jCm5-5">
          <mxGeometry relative="1" as="geometry">
            <Array as="points">
              <mxPoint x="310" y="200" />
              <mxPoint x="310" y="200" />
            </Array>
          </mxGeometry>
        </mxCell>
        <mxCell id="HlOCG1L-Az-CdFB1jCm5-12" value="[A3..A0]" style="text;html=1;align=center;verticalAlign=middle;whiteSpace=wrap;rounded=0;" vertex="1" parent="1">
          <mxGeometry x="210" y="185" width="60" height="30" as="geometry" />
        </mxCell>
        <mxCell id="HlOCG1L-Az-CdFB1jCm5-16" value="" style="edgeStyle=orthogonalEdgeStyle;rounded=0;orthogonalLoop=1;jettySize=auto;html=1;" edge="1" parent="1" source="HlOCG1L-Az-CdFB1jCm5-13" target="HlOCG1L-Az-CdFB1jCm5-10">
          <mxGeometry relative="1" as="geometry" />
        </mxCell>
        <mxCell id="HlOCG1L-Az-CdFB1jCm5-13" value="[B3..B0]" style="text;html=1;align=center;verticalAlign=middle;whiteSpace=wrap;rounded=0;" vertex="1" parent="1">
          <mxGeometry x="210" y="250" width="60" height="30" as="geometry" />
        </mxCell>
        <mxCell id="HlOCG1L-Az-CdFB1jCm5-19" style="edgeStyle=orthogonalEdgeStyle;rounded=0;orthogonalLoop=1;jettySize=auto;html=1;exitX=1;exitY=0.5;exitDx=0;exitDy=0;" edge="1" parent="1" source="HlOCG1L-Az-CdFB1jCm5-20">
          <mxGeometry relative="1" as="geometry">
            <mxPoint x="530" y="375" as="targetPoint" />
          </mxGeometry>
        </mxCell>
        <mxCell id="HlOCG1L-Az-CdFB1jCm5-20" value="..." style="rounded=0;whiteSpace=wrap;html=1;" vertex="1" parent="1">
          <mxGeometry x="330" y="325" width="80" height="100" as="geometry" />
        </mxCell>
        <mxCell id="HlOCG1L-Az-CdFB1jCm5-23" value="A0" style="text;html=1;align=center;verticalAlign=middle;whiteSpace=wrap;rounded=0;" vertex="1" parent="1">
          <mxGeometry x="330" y="335" width="30" height="10" as="geometry" />
        </mxCell>
        <mxCell id="HlOCG1L-Az-CdFB1jCm5-24" value="B0" style="text;html=1;align=center;verticalAlign=middle;whiteSpace=wrap;rounded=0;" vertex="1" parent="1">
          <mxGeometry x="330" y="345" width="30" height="10" as="geometry" />
        </mxCell>
        <mxCell id="HlOCG1L-Az-CdFB1jCm5-25" value="A3" style="text;html=1;align=center;verticalAlign=middle;whiteSpace=wrap;rounded=0;" vertex="1" parent="1">
          <mxGeometry x="330" y="395" width="30" height="10" as="geometry" />
        </mxCell>
        <mxCell id="HlOCG1L-Az-CdFB1jCm5-26" value="B3" style="text;html=1;align=center;verticalAlign=middle;whiteSpace=wrap;rounded=0;" vertex="1" parent="1">
          <mxGeometry x="330" y="405" width="30" height="10" as="geometry" />
        </mxCell>
        <mxCell id="HlOCG1L-Az-CdFB1jCm5-27" style="edgeStyle=orthogonalEdgeStyle;rounded=0;orthogonalLoop=1;jettySize=auto;html=1;exitX=1;exitY=0.5;exitDx=0;exitDy=0;" edge="1" parent="1" source="HlOCG1L-Az-CdFB1jCm5-28" target="HlOCG1L-Az-CdFB1jCm5-24">
          <mxGeometry relative="1" as="geometry">
            <Array as="points">
              <mxPoint x="310" y="345" />
              <mxPoint x="310" y="345" />
            </Array>
          </mxGeometry>
        </mxCell>
        <mxCell id="HlOCG1L-Az-CdFB1jCm5-28" value="[A3..A0]" style="text;html=1;align=center;verticalAlign=middle;whiteSpace=wrap;rounded=0;" vertex="1" parent="1">
          <mxGeometry x="210" y="330" width="60" height="30" as="geometry" />
        </mxCell>
        <mxCell id="HlOCG1L-Az-CdFB1jCm5-29" value="" style="edgeStyle=orthogonalEdgeStyle;rounded=0;orthogonalLoop=1;jettySize=auto;html=1;" edge="1" parent="1" source="HlOCG1L-Az-CdFB1jCm5-30" target="HlOCG1L-Az-CdFB1jCm5-26">
          <mxGeometry relative="1" as="geometry" />
        </mxCell>
        <mxCell id="HlOCG1L-Az-CdFB1jCm5-30" value="[B3..B0]" style="text;html=1;align=center;verticalAlign=middle;whiteSpace=wrap;rounded=0;" vertex="1" parent="1">
          <mxGeometry x="210" y="395" width="60" height="30" as="geometry" />
        </mxCell>
        <mxCell id="HlOCG1L-Az-CdFB1jCm5-31" value="" style="verticalLabelPosition=bottom;shadow=0;dashed=0;align=center;html=1;verticalAlign=top;shape=mxgraph.electrical.logic_gates.logic_gate;operation=or;" vertex="1" parent="1">
          <mxGeometry x="360" y="335" width="40" height="20" as="geometry" />
        </mxCell>
        <mxCell id="HlOCG1L-Az-CdFB1jCm5-33" value="" style="verticalLabelPosition=bottom;shadow=0;dashed=0;align=center;html=1;verticalAlign=top;shape=mxgraph.electrical.logic_gates.logic_gate;operation=or;" vertex="1" parent="1">
          <mxGeometry x="360" y="395" width="40" height="20" as="geometry" />
        </mxCell>
        <mxCell id="HlOCG1L-Az-CdFB1jCm5-35" value="" style="endArrow=none;html=1;rounded=0;" edge="1" parent="1">
          <mxGeometry width="50" height="50" relative="1" as="geometry">
            <mxPoint x="530" y="650.952380952381" as="sourcePoint" />
            <mxPoint x="530" y="180" as="targetPoint" />
          </mxGeometry>
        </mxCell>
        <mxCell id="HlOCG1L-Az-CdFB1jCm5-36" value="" style="endArrow=none;html=1;rounded=0;" edge="1" parent="1">
          <mxGeometry width="50" height="50" relative="1" as="geometry">
            <mxPoint x="530" y="650" as="sourcePoint" />
            <mxPoint x="610" y="600" as="targetPoint" />
          </mxGeometry>
        </mxCell>
        <mxCell id="HlOCG1L-Az-CdFB1jCm5-37" value="" style="endArrow=none;html=1;rounded=0;" edge="1" parent="1">
          <mxGeometry width="50" height="50" relative="1" as="geometry">
            <mxPoint x="530" y="180" as="sourcePoint" />
            <mxPoint x="610" y="220" as="targetPoint" />
          </mxGeometry>
        </mxCell>
        <mxCell id="HlOCG1L-Az-CdFB1jCm5-38" value="" style="endArrow=none;html=1;rounded=0;" edge="1" parent="1">
          <mxGeometry width="50" height="50" relative="1" as="geometry">
            <mxPoint x="610" y="600" as="sourcePoint" />
            <mxPoint x="610" y="220" as="targetPoint" />
          </mxGeometry>
        </mxCell>
        <mxCell id="HlOCG1L-Az-CdFB1jCm5-39" value="" style="endArrow=none;html=1;rounded=0;" edge="1" parent="1">
          <mxGeometry width="50" height="50" relative="1" as="geometry">
            <mxPoint x="340" y="530" as="sourcePoint" />
            <mxPoint x="340" y="490" as="targetPoint" />
          </mxGeometry>
        </mxCell>
        <mxCell id="HlOCG1L-Az-CdFB1jCm5-40" value="" style="endArrow=none;html=1;rounded=0;" edge="1" parent="1">
          <mxGeometry width="50" height="50" relative="1" as="geometry">
            <mxPoint x="360" y="550" as="sourcePoint" />
            <mxPoint x="340" y="530" as="targetPoint" />
          </mxGeometry>
        </mxCell>
        <mxCell id="HlOCG1L-Az-CdFB1jCm5-41" value="" style="endArrow=none;html=1;rounded=0;" edge="1" parent="1">
          <mxGeometry width="50" height="50" relative="1" as="geometry">
            <mxPoint x="340" y="570" as="sourcePoint" />
            <mxPoint x="360" y="550" as="targetPoint" />
          </mxGeometry>
        </mxCell>
        <mxCell id="HlOCG1L-Az-CdFB1jCm5-42" value="" style="endArrow=none;html=1;rounded=0;" edge="1" parent="1">
          <mxGeometry width="50" height="50" relative="1" as="geometry">
            <mxPoint x="340" y="610" as="sourcePoint" />
            <mxPoint x="340" y="570" as="targetPoint" />
          </mxGeometry>
        </mxCell>
        <mxCell id="HlOCG1L-Az-CdFB1jCm5-45" value="" style="endArrow=none;html=1;rounded=0;" edge="1" parent="1">
          <mxGeometry width="50" height="50" relative="1" as="geometry">
            <mxPoint x="340" y="610" as="sourcePoint" />
            <mxPoint x="380" y="580" as="targetPoint" />
          </mxGeometry>
        </mxCell>
        <mxCell id="HlOCG1L-Az-CdFB1jCm5-46" value="" style="endArrow=none;html=1;rounded=0;" edge="1" parent="1">
          <mxGeometry width="50" height="50" relative="1" as="geometry">
            <mxPoint x="340" y="490" as="sourcePoint" />
            <mxPoint x="380" y="520" as="targetPoint" />
          </mxGeometry>
        </mxCell>
        <mxCell id="HlOCG1L-Az-CdFB1jCm5-47" value="" style="endArrow=none;html=1;rounded=0;" edge="1" parent="1">
          <mxGeometry width="50" height="50" relative="1" as="geometry">
            <mxPoint x="380" y="580" as="sourcePoint" />
            <mxPoint x="380" y="520" as="targetPoint" />
          </mxGeometry>
        </mxCell>
        <mxCell id="HlOCG1L-Az-CdFB1jCm5-48" value="+" style="text;html=1;align=center;verticalAlign=middle;whiteSpace=wrap;rounded=0;" vertex="1" parent="1">
          <mxGeometry x="365" y="540" width="10" height="30" as="geometry" />
        </mxCell>
        <mxCell id="HlOCG1L-Az-CdFB1jCm5-49" style="edgeStyle=orthogonalEdgeStyle;rounded=0;orthogonalLoop=1;jettySize=auto;html=1;exitX=1;exitY=0.5;exitDx=0;exitDy=0;" edge="1" parent="1" source="HlOCG1L-Az-CdFB1jCm5-50">
          <mxGeometry relative="1" as="geometry">
            <Array as="points">
              <mxPoint x="320" y="512.5" />
              <mxPoint x="320" y="512.5" />
            </Array>
            <mxPoint x="340" y="512.5" as="targetPoint" />
          </mxGeometry>
        </mxCell>
        <mxCell id="HlOCG1L-Az-CdFB1jCm5-50" value="[A3..A0]" style="text;html=1;align=center;verticalAlign=middle;whiteSpace=wrap;rounded=0;" vertex="1" parent="1">
          <mxGeometry x="220" y="497.5" width="60" height="30" as="geometry" />
        </mxCell>
        <mxCell id="HlOCG1L-Az-CdFB1jCm5-51" value="" style="edgeStyle=orthogonalEdgeStyle;rounded=0;orthogonalLoop=1;jettySize=auto;html=1;" edge="1" parent="1" source="HlOCG1L-Az-CdFB1jCm5-52">
          <mxGeometry relative="1" as="geometry">
            <mxPoint x="340" y="585" as="targetPoint" />
          </mxGeometry>
        </mxCell>
        <mxCell id="HlOCG1L-Az-CdFB1jCm5-52" value="[B3..B0]" style="text;html=1;align=center;verticalAlign=middle;whiteSpace=wrap;rounded=0;" vertex="1" parent="1">
          <mxGeometry x="220" y="570" width="60" height="30" as="geometry" />
        </mxCell>
        <mxCell id="HlOCG1L-Az-CdFB1jCm5-53" value="" style="endArrow=classic;html=1;rounded=0;" edge="1" parent="1">
          <mxGeometry width="50" height="50" relative="1" as="geometry">
            <mxPoint x="380" y="560" as="sourcePoint" />
            <mxPoint x="530" y="560" as="targetPoint" />
          </mxGeometry>
        </mxCell>
        <mxCell id="HlOCG1L-Az-CdFB1jCm5-54" value="" style="endArrow=none;html=1;rounded=0;" edge="1" parent="1">
          <mxGeometry width="50" height="50" relative="1" as="geometry">
            <mxPoint x="399.33" y="720" as="sourcePoint" />
            <mxPoint x="399.33" y="700" as="targetPoint" />
          </mxGeometry>
        </mxCell>
        <mxCell id="HlOCG1L-Az-CdFB1jCm5-55" value="" style="endArrow=none;html=1;rounded=0;" edge="1" parent="1">
          <mxGeometry width="50" height="50" relative="1" as="geometry">
            <mxPoint x="400" y="720" as="sourcePoint" />
            <mxPoint x="470" y="720" as="targetPoint" />
          </mxGeometry>
        </mxCell>
        <mxCell id="HlOCG1L-Az-CdFB1jCm5-56" value="" style="endArrow=none;html=1;rounded=0;" edge="1" parent="1">
          <mxGeometry width="50" height="50" relative="1" as="geometry">
            <mxPoint x="470" y="720" as="sourcePoint" />
            <mxPoint x="470" y="680" as="targetPoint" />
          </mxGeometry>
        </mxCell>
        <mxCell id="HlOCG1L-Az-CdFB1jCm5-57" value="" style="endArrow=none;html=1;rounded=0;" edge="1" parent="1">
          <mxGeometry width="50" height="50" relative="1" as="geometry">
            <mxPoint x="400" y="700" as="sourcePoint" />
            <mxPoint x="470" y="680" as="targetPoint" />
          </mxGeometry>
        </mxCell>
        <mxCell id="HlOCG1L-Az-CdFB1jCm5-69" style="edgeStyle=orthogonalEdgeStyle;rounded=0;orthogonalLoop=1;jettySize=auto;html=1;exitX=0;exitY=0.5;exitDx=0;exitDy=0;endArrow=none;startFill=0;startArrow=none;" edge="1" parent="1" source="HlOCG1L-Az-CdFB1jCm5-58">
          <mxGeometry relative="1" as="geometry">
            <mxPoint x="435" y="560" as="targetPoint" />
          </mxGeometry>
        </mxCell>
        <mxCell id="HlOCG1L-Az-CdFB1jCm5-70" value="&lt;div&gt;1 bit&lt;/div&gt;" style="edgeLabel;html=1;align=center;verticalAlign=middle;resizable=0;points=[];" vertex="1" connectable="0" parent="HlOCG1L-Az-CdFB1jCm5-69">
          <mxGeometry x="0.2013" y="-2" relative="1" as="geometry">
            <mxPoint x="-3" y="-18" as="offset" />
          </mxGeometry>
        </mxCell>
        <mxCell id="HlOCG1L-Az-CdFB1jCm5-71" value="N-1 bit (MSB) XOR V" style="edgeLabel;html=1;align=center;verticalAlign=middle;resizable=0;points=[];" vertex="1" connectable="0" parent="HlOCG1L-Az-CdFB1jCm5-69">
          <mxGeometry x="-0.5314" y="-1" relative="1" as="geometry">
            <mxPoint x="-61" as="offset" />
          </mxGeometry>
        </mxCell>
        <mxCell id="HlOCG1L-Az-CdFB1jCm5-73" style="edgeStyle=orthogonalEdgeStyle;rounded=0;orthogonalLoop=1;jettySize=auto;html=1;exitX=1;exitY=0.5;exitDx=0;exitDy=0;" edge="1" parent="1" source="HlOCG1L-Az-CdFB1jCm5-58">
          <mxGeometry relative="1" as="geometry">
            <mxPoint x="530" y="615" as="targetPoint" />
            <Array as="points">
              <mxPoint x="500" y="705" />
              <mxPoint x="500" y="615" />
            </Array>
          </mxGeometry>
        </mxCell>
        <mxCell id="HlOCG1L-Az-CdFB1jCm5-74" value="4-bit" style="edgeLabel;html=1;align=center;verticalAlign=middle;resizable=0;points=[];" vertex="1" connectable="0" parent="HlOCG1L-Az-CdFB1jCm5-73">
          <mxGeometry x="0.0267" y="2" relative="1" as="geometry">
            <mxPoint x="22" y="2" as="offset" />
          </mxGeometry>
        </mxCell>
        <mxCell id="HlOCG1L-Az-CdFB1jCm5-58" value="&lt;font style=&quot;font-size: 10px;&quot;&gt;Zero-extend&lt;/font&gt;" style="text;html=1;align=center;verticalAlign=middle;whiteSpace=wrap;rounded=0;" vertex="1" parent="1">
          <mxGeometry x="400" y="690" width="70" height="30" as="geometry" />
        </mxCell>
        <mxCell id="HlOCG1L-Az-CdFB1jCm5-65" style="edgeStyle=orthogonalEdgeStyle;rounded=0;orthogonalLoop=1;jettySize=auto;html=1;exitX=1;exitY=0.5;exitDx=0;exitDy=0;" edge="1" parent="1" source="HlOCG1L-Az-CdFB1jCm5-63">
          <mxGeometry relative="1" as="geometry">
            <mxPoint x="360" y="600" as="targetPoint" />
          </mxGeometry>
        </mxCell>
        <mxCell id="HlOCG1L-Az-CdFB1jCm5-63" value="ALUControl 2 / SUB" style="text;html=1;align=center;verticalAlign=middle;whiteSpace=wrap;rounded=0;" vertex="1" parent="1">
          <mxGeometry x="160" y="630" width="120" height="30" as="geometry" />
        </mxCell>
        <mxCell id="HlOCG1L-Az-CdFB1jCm5-75" value="4-bit 4 to 1" style="text;html=1;align=center;verticalAlign=middle;whiteSpace=wrap;rounded=0;" vertex="1" parent="1">
          <mxGeometry x="540" y="410" width="60" height="30" as="geometry" />
        </mxCell>
        <mxCell id="HlOCG1L-Az-CdFB1jCm5-76" value="" style="endArrow=classic;html=1;rounded=0;" edge="1" parent="1">
          <mxGeometry width="50" height="50" relative="1" as="geometry">
            <mxPoint x="610" y="420" as="sourcePoint" />
            <mxPoint x="750" y="420" as="targetPoint" />
          </mxGeometry>
        </mxCell>
        <mxCell id="HlOCG1L-Az-CdFB1jCm5-77" value="[R3..R0] output" style="text;html=1;align=center;verticalAlign=middle;whiteSpace=wrap;rounded=0;" vertex="1" parent="1">
          <mxGeometry x="630" y="390" width="100" height="30" as="geometry" />
        </mxCell>
        <mxCell id="HlOCG1L-Az-CdFB1jCm5-93" style="edgeStyle=orthogonalEdgeStyle;rounded=0;orthogonalLoop=1;jettySize=auto;html=1;exitX=1;exitY=0.5;exitDx=0;exitDy=0;exitPerimeter=0;" edge="1" parent="1" source="HlOCG1L-Az-CdFB1jCm5-78">
          <mxGeometry relative="1" as="geometry">
            <mxPoint x="860" y="480" as="targetPoint" />
          </mxGeometry>
        </mxCell>
        <mxCell id="HlOCG1L-Az-CdFB1jCm5-94" value="Z" style="edgeLabel;html=1;align=center;verticalAlign=middle;resizable=0;points=[];" vertex="1" connectable="0" parent="HlOCG1L-Az-CdFB1jCm5-93">
          <mxGeometry x="-0.6794" y="1" relative="1" as="geometry">
            <mxPoint y="-9" as="offset" />
          </mxGeometry>
        </mxCell>
        <mxCell id="HlOCG1L-Az-CdFB1jCm5-78" value="" style="verticalLabelPosition=bottom;shadow=0;dashed=0;align=center;html=1;verticalAlign=top;shape=mxgraph.electrical.logic_gates.logic_gate;operation=and;negating=1;negSize=0.15;" vertex="1" parent="1">
          <mxGeometry x="720" y="440" width="100" height="80" as="geometry" />
        </mxCell>
        <mxCell id="HlOCG1L-Az-CdFB1jCm5-80" value="" style="endArrow=none;html=1;rounded=0;entryX=0.5;entryY=1;entryDx=0;entryDy=0;strokeWidth=4;" edge="1" parent="1" target="HlOCG1L-Az-CdFB1jCm5-77">
          <mxGeometry width="50" height="50" relative="1" as="geometry">
            <mxPoint x="680" y="500" as="sourcePoint" />
            <mxPoint x="560" y="400" as="targetPoint" />
          </mxGeometry>
        </mxCell>
        <mxCell id="HlOCG1L-Az-CdFB1jCm5-87" value="" style="endArrow=none;html=1;rounded=0;entryX=0;entryY=0.25;entryDx=0;entryDy=0;entryPerimeter=0;" edge="1" parent="1" target="HlOCG1L-Az-CdFB1jCm5-78">
          <mxGeometry width="50" height="50" relative="1" as="geometry">
            <mxPoint x="680" y="460" as="sourcePoint" />
            <mxPoint x="690" y="470" as="targetPoint" />
          </mxGeometry>
        </mxCell>
        <mxCell id="HlOCG1L-Az-CdFB1jCm5-88" value="" style="endArrow=none;html=1;rounded=0;entryX=0;entryY=0.75;entryDx=0;entryDy=0;entryPerimeter=0;" edge="1" parent="1" target="HlOCG1L-Az-CdFB1jCm5-78">
          <mxGeometry width="50" height="50" relative="1" as="geometry">
            <mxPoint x="680" y="500" as="sourcePoint" />
            <mxPoint x="690" y="470" as="targetPoint" />
          </mxGeometry>
        </mxCell>
        <mxCell id="HlOCG1L-Az-CdFB1jCm5-89" value="" style="endArrow=none;html=1;rounded=0;" edge="1" parent="1">
          <mxGeometry width="50" height="50" relative="1" as="geometry">
            <mxPoint x="680" y="470" as="sourcePoint" />
            <mxPoint x="740" y="470" as="targetPoint" />
          </mxGeometry>
        </mxCell>
        <mxCell id="HlOCG1L-Az-CdFB1jCm5-90" value="" style="endArrow=none;html=1;rounded=0;entryX=0.202;entryY=0.624;entryDx=0;entryDy=0;entryPerimeter=0;" edge="1" parent="1" target="HlOCG1L-Az-CdFB1jCm5-78">
          <mxGeometry width="50" height="50" relative="1" as="geometry">
            <mxPoint x="680" y="490" as="sourcePoint" />
            <mxPoint x="690" y="470" as="targetPoint" />
          </mxGeometry>
        </mxCell>
        <mxCell id="HlOCG1L-Az-CdFB1jCm5-95" value="" style="endArrow=none;html=1;rounded=0;" edge="1" parent="1">
          <mxGeometry width="50" height="50" relative="1" as="geometry">
            <mxPoint x="600" y="685" as="sourcePoint" />
            <mxPoint x="600" y="605" as="targetPoint" />
          </mxGeometry>
        </mxCell>
        <mxCell id="HlOCG1L-Az-CdFB1jCm5-96" value="ALUControl [1..0]" style="edgeLabel;html=1;align=center;verticalAlign=middle;resizable=0;points=[];" vertex="1" connectable="0" parent="HlOCG1L-Az-CdFB1jCm5-95">
          <mxGeometry x="-0.3651" relative="1" as="geometry">
            <mxPoint x="50" y="1" as="offset" />
          </mxGeometry>
        </mxCell>
      </root>
    </mxGraphModel>
  </diagram>
</mxfile>
